# xmcd
#
# Track frame offsets:
#	150
#	12863
#	26247
#	38750
#	50349
#	58622
#	67120
#	79484
#	90233
#	104511
#	117073
#	130063
#	143447
#	157344
#	169574
#	180625
#	192188
#	205460
#	215842
#	230585
#
# Disc length: 3244
#
# Revision: 1
# Processed by: cddbd v1.5.1PL0 Copyright (c) Steve Scherf et al.
# Submitted via: OrangeCD 5.2
# Normalized: r0:DSETVAR1
#
DISCID=1c0caa14
DTITLE=Various Artist - The Country Club CD 1
DYEAR=1900
DGENRE=Country
TTITLE0=Johnny Cash - Fulsom Prison Blues
TTITLE1=Lynn Anderson - Rose Garden
TTITLE2=Charlie Rich - Behind Closed Doors
TTITLE3=Sammi Smith - Help Me Make It Through the Night
TTITLE4=Don Gibson - Blue Blue Day
TTITLE5=Willie Nelson - Slow Down Old World
TTITLE6=Jeanne Pruet - Satin Sheets
TTITLE7=Waylon Jennings - Sally Was a Good Old Girl
TTITLE8=Conway Twitty - You've Never Been This Far Before
TTITLE9=Wanda Jackson - Crazy
TTITLE10=Faron Young - It's Four in the Morning
TTITLE11=Don Williams - Where Do We Go From Here
TTITLE12=George Jones - A Good Year for the Roses
TTITLE13=Merle Haggard - Okie from Muskogee
TTITLE14=Roger Miller - King of the Road
TTITLE15=Patsy Cline - Walking After Midnight
TTITLE16=Kenny Rogers - Ruby, Don't Take Your Love to Town
TTITLE17=George Hamilton IV - Abilene
TTITLE18=Jeannie C Riley - The Harper Valley PTA
TTITLE19=Leroy Van Dyke - The Auctioneer
EXTD=
EXTT0=
EXTT1=
EXTT2=
EXTT3=
EXTT4=
EXTT5=
EXTT6=
EXTT7=
EXTT8=
EXTT9=
EXTT10=
EXTT11=
EXTT12=
EXTT13=
EXTT14=
EXTT15=
EXTT16=
EXTT17=
EXTT18=
EXTT19=
PLAYORDER=
